<?xml version="1.0" encoding="UTF-8"?>
<svg id="Calque_2" data-name="Calque 2" xmlns="http://www.w3.org/2000/svg" viewBox="0 0 163.21 49.79">
  <defs>
    <style>
      .cls-1 {
        fill: #1d1d1b;
      }
    </style>
  </defs>
  <g id="Calque_1-2" data-name="Calque 1">
    <path class="cls-1" d="m14.97,0h34.25c-5.83.55-30.43,12.89-31.83,49.53H5.87c1.04-17.04,3.83-26.99,10.35-36.47,1.22-1.77-.1-4.17-2.24-4.14l-13.99.19s4.39.11,7.98-5.39c1.53-2.35,4.18-3.72,6.98-3.72Z"/>
    <path class="cls-1" d="m34.05,38.15c-1.07,3.81-1.83,7.72-2.27,11.39h-10.97C21.88,20.26,37.81,6.47,51.61.31l16.3.09c-8.48,3.62-15.12,8.29-20.27,13.62-1.77,1.83-.45,4.9,2.1,4.9h1.27c2.64,0,5.14-1.24,6.73-3.34,7.08-9.35,15.3-13.61,18.89-15.13h5.03s11.78-.04,11.78-.04h.04l.56.02s.04.07.06.11c3.75,7.26,12.05,29.92,14.78,49h-11.61c-.14-1.04-.3-2.08-.47-3.11-.6-3.58-3.68-6.2-7.31-6.28-9.21-.18-26.03-2.44-28.74,9.54.48-1.39,1.43-11.67,8.07-18.75h10.81c7.71,0,12.76-8.07,9.4-15.01l-3.46-7.12c-.7-1.44-2.55-1.86-3.8-.87-20.68,16.41-24.59,39-24.98,41.6-.03.17-.04.25-.04.25h-10.98c.01-.08.01-.17.02-.25.4-5.24,1.24-9.95,2.4-14.18.7-2.57-1.19-5.1-3.85-5.1h0c-4.81.01-8.98,3.25-10.28,7.89Z"/>
    <path class="cls-1" d="m146.81,49.53h-11.75c-2.04-12.26-14.68-10.34-14.68-10.34,0,0,3.68,7.15,3.96,10.34h-12.38c-1.09-16.15-9.25-39.86-14.48-48.98l9.75.06.38.02,7.88,18.19c2.53,5.85,11.37,2.5,9.35-3.55-.04-.11-.08-.23-.12-.34-1.4-3.99-2.66-6.99-3.72-9.23s.59-5.01,3.17-5l8.69.03c-3.62-.01-2.35,3.55-2.35,3.55h0s.22.68.22.68c0,.01,0,.02.01.04l3.6,11.32s.02.03.02.05l.32.99s1.32,5.96-1.18,10.48c-1.17,2.12-3.18,3.92-6.57,4.64,2.15-.22,6.96-.07,12.6,4.15,0,0,6.64,6.26,7.28,12.9Z"/>
    <path class="cls-1" d="m163.21,49.53h-9.32c-.38-8.64-2.68-17.58-5.15-23.19,0,0-4.61,11.16-13.63,2.73l-5.12-5.17,4.69-6.54,2.25,3.75c.5.82,1.14,1.57,1.97,2.05,4.57,2.67,8.54-4.28,2.98-17.91-.86-2.12.69-4.44,2.98-4.44h9.4c-9.15,0,5.2,27.23,8.94,48.72Z"/>
  </g>
</svg>