<?xml version="1.0" encoding="UTF-8"?>
<svg id="Calque_2" data-name="Calque 2" xmlns="http://www.w3.org/2000/svg" xmlns:xlink="http://www.w3.org/1999/xlink" viewBox="0 0 595.28 305.89">
  <defs>
    <style>
      .cls-1 {
        fill: #fff;
      }

      .cls-2 {
        fill: url(#Dégradé_sans_nom_998);
      }

      .cls-3 {
        fill: url(#Dégradé_sans_nom_989);
      }

      .cls-4 {
        fill: #1d1d1b;
      }
    </style>
    <linearGradient id="Dégradé_sans_nom_989" data-name="Dégradé sans nom 989" x1="0" y1="229.36" x2="297.64" y2="229.36" gradientUnits="userSpaceOnUse">
      <stop offset="0" stop-color="#fbea24"/>
      <stop offset=".12" stop-color="#dcde25"/>
      <stop offset=".31" stop-color="#b3cf28"/>
      <stop offset=".5" stop-color="#93c32a"/>
      <stop offset=".68" stop-color="#7cba2b"/>
      <stop offset=".85" stop-color="#6eb52c"/>
      <stop offset="1" stop-color="#6ab42d"/>
    </linearGradient>
    <linearGradient id="Dégradé_sans_nom_998" data-name="Dégradé sans nom 998" x1="297.64" y1="229.1" x2="595.28" y2="229.1" gradientUnits="userSpaceOnUse">
      <stop offset="0" stop-color="#fbea24"/>
      <stop offset="1" stop-color="#6ab42d"/>
    </linearGradient>
  </defs>
  <g id="Calque_1-2" data-name="Calque 1">
    <rect class="cls-4" width="297.64" height="153.06"/>
    <rect class="cls-1" x="297.64" width="297.64" height="153.06"/>
    <path class="cls-4" d="m382.94,52.67c-8.23,2.85-14.67-.18-19.61,0s-9.04,4.42-8.48,9.47c1.64,14.69-2.79,37.28-2.79,37.28,10.83-5.26,14.19-19.1,14.87-22.57.09-.46.47-.81.94-.86,2.14-.23,7.91-1.42,8.03-7.58h0c-4.66,1.49-15.69-.23-15.69-.23,24.8.52,22.74-15.51,22.74-15.51Z"/>
    <path class="cls-4" d="m387.59,52.67s-12.66,34.83-30.72,46.75h46.27c.03-7.25-23.69-8-23.69-8,8.37-13.33,8.14-38.75,8.14-38.75Z"/>
    <path class="cls-4" d="m448.93,53.23c-1.91-.33-3.8.65-4.62,2.39-4.68,9.9-14.8,38.71-31.46,43.66-.07.02-.04.13.03.13h22.45c5.73,0,10.37-4.64,10.37-10.37v-13.01s-3.92,23.38,11.99,23.38,11.7-23.38,11.7-23.38v13.01c0,5.73,4.64,10.37,10.37,10.37h17.02c-5.31.13-20.88-33.32-25.58-43.71-.81-1.79-2.73-2.8-4.66-2.46l-2.98.52c-3.8.67-7.68.67-11.48,0l-3.14-.55Z"/>
    <path class="cls-4" d="m475.87,52.67c-1.39,0-2.33,1.42-1.78,2.7,18.97,44.05,26.09,44.05,26.09,44.05h32.51c-2,0-5.7-4.84-8.62-9.17s-7.53-6.64-12.56-6.6l-7.19.07c14.89.15,23.48-15.4-8.14-15.55,0,0,21.85,7.55,15.69-15.51h-36.01Z"/>
    <path class="cls-4" d="m442.51,53.17h0c-1.93.64-3.66.49-3.66.49h-8.11c-4.74,0-9.2,2.27-12,6.1l-14.66,20.08c-.57.79-1.33,1.43-2.2,1.87l-2.46,1.25c-.66.34-1.28-.52-.76-1.04h0c.25-.25.47-.52.67-.81.7-1.03,1.37-2.07,2.12-3.06l17.67-23.28c.43-1.01.66-1.05.66-2.15h0c-.92.64-4.33.62-4.33.62l-17.74-.08c-3.33,0-6.08,2.62-6.23,5.95-.56,11.89-4.44,29.69-10.52,36.14,0,0,19.95,11.77,38.98-3.05,3.33-2.59,7.27-5.95,13.48-19.5,2.44-5.32,9.11-19.53,9.11-19.53Z"/>
    <path class="cls-1" d="m89.38,52.82c-8.23,2.85-14.67-.18-19.61,0s-9.04,4.42-8.48,9.47c1.64,14.69-2.79,37.28-2.79,37.28,10.83-5.26,14.19-19.1,14.87-22.57.09-.46.47-.81.94-.86,2.14-.23,7.91-1.42,8.03-7.58h0c-4.66,1.49-15.69-.23-15.69-.23,24.8.52,22.74-15.51,22.74-15.51Z"/>
    <path class="cls-1" d="m148.96,53.32s-6.67,14.21-9.11,19.53c-6.2,13.55-10.14,16.91-13.47,19.5-5.7,4.44-11.49,6.49-16.8,7.19-.09.01-.18.02-.27.03h-46c18.07-11.92,30.73-46.75,30.73-46.75,0,0,.22,25.43-8.15,38.75,0,0,1.64.05,4.06.26,4.61-8.04,7.49-22.45,7.97-32.57.16-3.34,2.9-5.95,6.23-5.95l17.74.07h.03c.36,0,3.43-.02,4.3-.62,0,1.1-.23,1.14-.66,2.15l-17.67,23.28c-.75.99-1.42,2.03-2.12,3.06-.19.29-.42.56-.66.8-.53.53.09,1.38.75,1.05l2.46-1.25c.87-.44,1.63-1.08,2.2-1.87l14.66-20.08c2.8-3.83,7.26-6.1,12-6.1h8.11s1.74.16,3.67-.48Z"/>
    <path class="cls-1" d="m109.58,99.54v.03h-.27c.09-.01.18-.02.27-.03Z"/>
    <path class="cls-1" d="m155.38,53.38c-1.91-.33-3.8.65-4.62,2.39-4.68,9.9-14.8,38.71-31.46,43.66-.07.02-.04.13.03.13h22.45c5.73,0,10.37-4.64,10.37-10.37v-13.01s-3.92,23.38,11.99,23.38,11.7-23.38,11.7-23.38v13.01c0,5.73,4.64,10.37,10.37,10.37h17.02c-5.31.13-20.88-33.32-25.58-43.71-.81-1.79-2.73-2.8-4.66-2.46l-2.98.52c-3.8.67-7.68.67-11.48,0l-3.14-.55Z"/>
    <path class="cls-1" d="m182.32,52.81c-1.39,0-2.33,1.42-1.78,2.7,18.97,44.05,26.09,44.05,26.09,44.05h32.51c-2,0-5.7-4.84-8.62-9.17s-7.53-6.64-12.56-6.6l-7.19.07c14.89.15,23.48-15.4-8.14-15.55,0,0,21.85,7.55,15.69-15.51h-36.01Z"/>
    <path class="cls-1" d="m109.31,99.57c-3.03.38-5.9.31-8.51,0h8.51Z"/>
    <rect class="cls-3" y="152.83" width="297.64" height="153.06"/>
    <path class="cls-4" d="m85.44,205.73c-8.23,2.85-14.67-.18-19.61,0s-9.04,4.42-8.48,9.47c1.64,14.69-2.79,37.28-2.79,37.28,10.83-5.26,14.19-19.1,14.87-22.57.09-.46.47-.81.94-.86,2.14-.23,7.91-1.42,8.03-7.58h0c-4.66,1.49-15.69-.23-15.69-.23,24.8.52,22.74-15.51,22.74-15.51Z"/>
    <path class="cls-4" d="m90.09,205.73s-12.66,34.83-30.72,46.75h46.27c.03-7.25-23.69-8-23.69-8,8.37-13.33,8.14-38.75,8.14-38.75Z"/>
    <path class="cls-4" d="m151.29,206.3c-1.91-.33-3.8.65-4.62,2.39-4.68,9.9-14.8,38.71-31.46,43.66-.07.02-.04.13.03.13h22.45c5.73,0,10.37-4.64,10.37-10.37v-13.01s-3.92,23.38,11.99,23.38,11.7-23.38,11.7-23.38v13.01c0,5.73,4.64,10.37,10.37,10.37h17.02c-5.31.13-20.88-33.32-25.58-43.71-.81-1.79-2.73-2.8-4.66-2.46l-2.98.52c-3.8.67-7.68.67-11.48,0l-3.14-.55Z"/>
    <path class="cls-4" d="m178.23,205.73c-1.39,0-2.33,1.42-1.78,2.7,18.97,44.05,26.09,44.05,26.09,44.05h32.51c-2,0-5.7-4.84-8.62-9.17s-7.53-6.64-12.56-6.6l-7.19.07c14.89.15,23.48-15.4-8.14-15.55,0,0,21.85,7.55,15.69-15.51h-36.01Z"/>
    <path class="cls-4" d="m144.87,206.23h0c-1.93.64-3.66.49-3.66.49h-8.11c-4.74,0-9.2,2.27-12,6.1l-14.66,20.08c-.57.79-1.33,1.43-2.2,1.87l-2.46,1.25c-.66.34-1.28-.52-.76-1.04h0c.25-.25.47-.52.67-.81.7-1.03,1.37-2.07,2.12-3.06l17.67-23.28c.43-1.01.66-1.05.66-2.15h0c-.92.64-4.33.62-4.33.62l-17.74-.08c-3.33,0-6.08,2.62-6.23,5.95-.56,11.89-4.44,29.69-10.52,36.14,0,0,19.95,11.77,38.98-3.05,3.33-2.59,7.27-5.95,13.48-19.5,2.44-5.32,9.11-19.53,9.11-19.53Z"/>
    <rect class="cls-2" x="297.64" y="152.57" width="297.64" height="153.06"/>
    <path class="cls-1" d="m383.08,205.24c-8.23,2.85-14.67-.18-19.61,0s-9.04,4.42-8.48,9.47c1.64,14.69-2.79,37.28-2.79,37.28,10.83-5.26,14.19-19.1,14.87-22.57.09-.46.47-.81.94-.86,2.14-.23,7.91-1.42,8.03-7.58h0c-4.66,1.49-15.69-.23-15.69-.23,24.8.52,22.74-15.51,22.74-15.51Z"/>
    <path class="cls-1" d="m387.73,205.24s-12.66,34.83-30.72,46.75h46.27c.03-7.25-23.69-8-23.69-8,8.37-13.33,8.14-38.75,8.14-38.75Z"/>
    <path class="cls-1" d="m448.93,205.81c-1.91-.33-3.8.65-4.62,2.39-4.68,9.9-14.8,38.71-31.46,43.66-.07.02-.04.13.03.13h22.45c5.73,0,10.37-4.64,10.37-10.37v-13.01s-3.92,23.38,11.99,23.38,11.7-23.38,11.7-23.38v13.01c0,5.73,4.64,10.37,10.37,10.37h17.02c-5.31.13-20.88-33.32-25.58-43.71-.81-1.79-2.73-2.8-4.66-2.46l-2.98.52c-3.8.67-7.68.67-11.48,0l-3.14-.55Z"/>
    <path class="cls-1" d="m475.87,205.24c-1.39,0-2.33,1.42-1.78,2.7,18.97,44.05,26.09,44.05,26.09,44.05h32.51c-2,0-5.7-4.84-8.62-9.17-2.81-4.17-7.53-6.64-12.56-6.6l-7.19.07c14.89.15,23.48-15.4-8.14-15.55,0,0,21.85,7.55,15.69-15.51h-36.01Z"/>
    <path class="cls-1" d="m442.51,205.74h0c-1.93.64-3.66.49-3.66.49h-8.11c-4.74,0-9.2,2.27-12,6.1l-14.66,20.08c-.57.79-1.33,1.43-2.2,1.87l-2.46,1.25c-.66.34-1.28-.52-.76-1.04h0c.25-.25.47-.52.67-.81.7-1.03,1.37-2.07,2.12-3.06l17.67-23.28c.43-1.01.66-1.05.66-2.15h0c-.92.64-4.33.62-4.33.62l-17.74-.08c-3.33,0-6.08,2.62-6.23,5.95-.56,11.89-4.44,29.69-10.52,36.14,0,0,19.95,11.77,38.98-3.05,3.33-2.59,7.27-5.95,13.48-19.5,2.44-5.32,9.11-19.53,9.11-19.53Z"/>
  </g>
</svg>