<?xml version="1.0" encoding="UTF-8"?>
<svg id="Calque_2" data-name="Calque 2" xmlns="http://www.w3.org/2000/svg" viewBox="0 0 184.4 101.24">
  <defs>
    <style>
      .cls-1 {
        stroke-width: .5px;
      }

      .cls-1, .cls-2 {
        stroke: #1d1d1b;
        stroke-miterlimit: 10;
      }

      .cls-1, .cls-2, .cls-3 {
        fill: none;
      }

      .cls-4 {
        fill: #fff;
      }

      .cls-2 {
        stroke-linecap: round;
        stroke-width: 3px;
      }

      .cls-5, .cls-6 {
        fill: #1d1d1b;
      }

      .cls-6 {
        font-family: TwCenMT-Italic, 'Tw Cen MT';
        font-size: 28.81px;
      }
    </style>
  </defs>
  <g id="Calque_1-2" data-name="Calque 1">
    <g id="logo_etoile" data-name="logo etoile">
      <path class="cls-4" d="M47.12,.96l8.18,32.42c.5,1.97,2.01,3.51,3.97,4.04l32.27,8.8-31.83,8.11c-2.12,.54-3.77,2.19-4.31,4.31l-8.28,32.34-8.47-32.02c-.53-2-2.1-3.56-4.11-4.06L1,46.4l33.6-10.73c1.89-.6,3.34-2.11,3.88-4.02L47.12,.96Z"/>
      <path class="cls-3" d="M47.12,.97l8.2,32.47c.5,1.97,2.02,3.52,3.97,4.05l32.32,8.81-31.88,8.12c-2.12,.54-3.78,2.2-4.32,4.32l-8.29,32.39-8.48-32.08c-.53-2-2.1-3.56-4.11-4.07L.93,46.48l33.65-10.75c1.89-.6,3.35-2.12,3.89-4.03L47.12,.97Z"/>
      <text class="cls-6" transform="translate(62.83 72.44)"><tspan x="0" y="0">Plan</tspan></text>
      <text class="cls-6" transform="translate(59.26 93.63)"><tspan x="0" y="0">D’ensemble</tspan></text>
      <path class="cls-1" d="M34.04,35.78c.11-.03,.22-.06,.34-.1,2.01-.57,3.57-2.15,4.14-4.16,2.87-10.19,5.73-20.37,8.6-30.56l8.14,32.24c.53,2.11,2.16,3.77,4.26,4.34,10.7,2.92,21.39,5.83,32.09,8.75-4.13,1.02-8.26,2.04-12.4,3.06"/>
      <path class="cls-1" d="M18.25,41.21c-5.77,1.75-11.55,3.51-17.32,5.26l33.43,8.47c2.11,.54,3.77,2.17,4.33,4.28,2.81,10.64,5.62,21.27,8.44,31.91,2.76-10.78,5.52-21.56,8.28-32.34,.55-2.14,2.25-3.79,4.41-4.27,.18-.04,.35-.08,.53-.12"/>
      <path class="cls-2" d="M53.51,12.33s21.51,1.87,28.41,26.72"/>
      <path class="cls-2" d="M39.85,12.5s-22.07,3.91-27.39,26.55"/>
      <path class="cls-2" d="M11.88,52.91s2.54,24.39,29.05,29.91"/>
      <path class="cls-5" d="M46.64,26.38l3.56,14.12c.22,.86,.88,1.53,1.73,1.76l14.05,3.83-13.86,3.53c-.92,.23-1.64,.95-1.88,1.88l-3.6,14.08-3.69-13.94c-.23-.87-.91-1.55-1.79-1.77l-14.6-3.7,14.63-4.67c.82-.26,1.46-.92,1.69-1.75l3.76-13.36Z"/>
    </g>
  </g>
</svg>